<svg width="40" height="40" viewBox="0 0 40 40" fill="none" xmlns="http://www.w3.org/2000/svg">
<path d="M13.8188 21.7019C13.8188 21.7019 20.7375 12.9519 11.6844 9.65812C2.6325 6.36562 7.23 8.67625 0.353125 5C0.353125 5 -0.85 7.01062 2.305 11.0731L0.44875 10.8406C0.44875 10.8406 -0.0568753 13.8675 4.7775 14.6637L2.72687 15.4894C2.72687 15.4894 4.40125 17.3581 7.28062 16.8306L6.14375 18.1181C6.14375 18.1181 7.44562 19.3637 10.0375 18.0256L9.15812 18.9956C9.15812 18.9956 10.8925 20.5637 12.7906 19.6037C12.7906 19.6037 14.3688 19.2612 13.8188 21.7019Z" fill="#B3B3B3"/>
<path d="M13.8438 20.1625C13.8438 20.1625 19.3769 13.1662 12.1381 10.5325C4.90125 7.90125 8.57688 9.74812 3.07813 6.80937C3.07813 6.80937 2.11688 8.41687 4.63938 11.6662L3.15501 11.4806C3.15501 11.4806 2.75063 13.8994 6.61563 14.5369L4.97626 15.1962C4.97626 15.1962 6.31501 16.6912 8.61751 16.2687L7.70751 17.2975C7.70751 17.2975 8.74938 18.2944 10.8213 17.2244L10.1188 18.0012C10.1188 18.0012 11.505 19.2512 13.0231 18.485C13.0231 18.485 14.2856 18.2106 13.8438 20.1625Z" fill="#E6E6E6"/>
<path fill-rule="evenodd" clip-rule="evenodd" d="M21.7019 27.3281C20.8969 24.6825 21.6981 27.3769 20.8869 24.8344C20.6331 24.0381 20.3069 23.2363 19.8875 22.5625C19.6062 22.1106 19.1225 21.7125 18.6944 21.5781C17.5669 21.2238 16.4212 20.9775 15.2794 20.7769C13.5262 20.4694 11.7675 20.2831 10.0525 19.5406C9.96687 19.5038 9.88187 19.46 9.7225 19.3819C9.86687 19.0863 9.97437 18.7881 10.1381 18.5663C10.3462 18.285 10.5825 18.0363 10.8381 17.8306C11.5962 17.225 12.2706 16.5094 12.8044 15.5806C12.9131 15.395 13.0475 15.2338 13.1744 15.0675C13.5506 14.5837 14.005 14.4175 14.5425 14.7131C15.0931 15.0188 15.5944 15.0381 16.135 14.7669C16.7825 14.4444 17.4981 14.64 18.1825 14.8525C19.1081 15.1363 20.0194 15.515 20.9437 15.7781C21.5144 15.9369 22.0981 15.9731 22.675 16.0444C23.3062 16.115 23.8219 16.5231 24.2925 17.0656C24.9725 17.8544 25.47 18.8344 25.7631 19.9044C26.1194 21.2038 26.0462 19.7063 25.9231 20.4638C26.225 21.5338 25.7606 22.1931 25.1912 22.88C24.215 24.0575 23.3412 25.3744 22.4094 26.6175C22.2181 26.8713 21.975 27.0569 21.7019 27.3281ZM15.9325 16.5331C15.7394 15.8194 15.5194 15.6075 15.0337 15.7194C14.7944 15.7731 14.5625 15.9125 14.3644 16.0838C14.1856 16.2425 14.0456 16.2963 13.8219 16.1619C13.7212 16.1031 13.57 16.2181 13.4419 16.2544C13.5212 16.4056 13.5737 16.6281 13.68 16.6969C13.9412 16.8656 14.065 17.0706 14.0975 17.4569C14.1681 18.2363 14.5656 18.7513 15.17 18.915C15.7906 19.0813 16.3062 18.8513 16.7481 18.3506C16.8225 18.265 16.93 18.1431 17.0119 18.1625C17.315 18.2381 17.6137 18.3675 17.9781 18.5C17.7056 18.7219 17.4931 18.8738 17.3006 19.0594C16.9075 19.4381 16.9319 19.89 17.3981 20.2369C17.5912 20.3806 17.905 20.4763 18.0725 20.3738C18.508 20.1032 18.902 19.7708 19.2419 19.3869C19.4506 19.155 19.59 18.9838 19.9 19.1719C20.0462 19.2625 20.2406 19.2038 20.4131 19.2088C20.4275 19.1406 20.4425 19.0669 20.4581 18.9963C20.2762 18.8494 20.1025 18.6638 19.91 18.5663C19.7025 18.4613 19.6019 18.3656 19.585 18.0456C19.5325 17.1 19.0869 16.5188 18.355 16.3919C17.7019 16.2819 17.0787 16.4138 16.6069 16.9513C16.3381 17.2594 16.1156 17.1881 15.835 17.0294C15.7081 16.9606 15.5744 16.9219 15.445 16.8656C15.4537 16.8219 15.4606 16.7775 15.4706 16.7363C15.6175 16.6694 15.7656 16.6063 15.9325 16.5331ZM23.2319 19.2931C22.9525 19.1025 22.6825 18.9144 22.3994 18.7194C22.3212 19.1594 22.5425 19.3056 22.745 19.4356C22.9387 19.5575 23.1369 19.5963 23.2319 19.2931ZM23.2637 18.7219C23.1219 18.3969 22.9975 18.1256 22.8294 17.7469C22.6494 18.5363 22.69 18.6169 23.2637 18.7219Z" fill="#E6A42E"/>
<path d="M22.9594 25.8794C22.1531 23.2363 22.9588 25.9281 22.1419 23.385C21.8881 22.5888 21.5619 21.7869 21.1413 21.1156C20.8619 20.6613 20.3781 20.2631 19.9494 20.1288C19.5985 20.0188 19.2446 19.9185 18.8881 19.8281C18.6386 20.0615 18.3664 20.2694 18.0756 20.4488C17.9094 20.5513 17.5956 20.4588 17.4025 20.3144C17.0531 20.0531 16.9506 19.7331 17.0875 19.4281C16.903 19.393 16.7182 19.3595 16.5331 19.3275C14.7819 19.02 13.025 18.8338 11.3075 18.0913C11.2219 18.0544 11.1388 18.0106 10.9781 17.935C11.0163 17.8594 11.0513 17.7813 11.0856 17.7056C11.0069 17.7745 10.9262 17.8412 10.8438 17.9056C10.5794 18.1198 10.3438 18.367 10.1425 18.6413C9.97875 18.8656 9.87125 19.1638 9.72688 19.46C9.88563 19.5356 9.97125 19.5794 10.0569 19.6163C11.7719 20.3613 13.5306 20.5444 15.2838 20.8525C16.4256 21.0531 17.5713 21.3019 18.6988 21.6563C19.1275 21.7906 19.61 22.1888 19.8906 22.6381C20.3094 23.3125 20.6369 24.1162 20.8913 24.91C21.7013 27.4525 20.9013 24.7581 21.7063 27.4037C21.98 27.1325 22.2225 26.9475 22.4138 26.6956C22.6544 26.37 22.8925 26.0456 23.1294 25.7162C23.0731 25.7694 23.0169 25.8231 22.9594 25.8794Z" fill="#C4872B"/>
<path fill-rule="evenodd" clip-rule="evenodd" d="M3.44687 28.4987C3.94249 27.9387 4.34562 27.3769 4.82937 26.9644C6.38437 25.6406 7.69499 23.9594 9.03749 22.33C9.50999 21.7537 9.83249 20.9644 10.2625 20.2C13.1369 21.1381 16.1912 21.0769 19.1231 22.3912C18.61 23.0387 18.09 23.6412 17.6219 24.3062C16.9969 25.1906 16.4137 26.1237 15.8031 27.0275C15.0365 28.1683 14.2652 29.306 13.4894 30.4406C12.7294 31.5519 11.8112 31.8012 10.6275 31.2437C8.662 30.3187 6.60492 29.6023 4.48999 29.1062C4.18187 29.0306 3.88874 28.7625 3.44687 28.4987Z" fill="#4FBA80"/>
<path fill-rule="evenodd" clip-rule="evenodd" d="M17.0375 13.9825C17.4775 13.6044 17.89 13.1762 18.3569 12.8587C19.2281 12.2725 19.9569 11.4712 20.6631 10.6112C21.105 10.0687 21.6037 9.59749 22.0919 9.11624C22.36 8.84999 22.6225 8.83812 22.9787 9.10624C24.2994 10.1006 25.7369 10.4375 27.1844 10.6531C27.8387 10.7506 28.495 10.8094 29.2156 10.8925C29.0525 11.0925 28.9294 11.2612 28.7925 11.4081C27.47 12.8375 26.1444 14.2594 24.8225 15.6881C24.4919 16.0475 24.1344 16.0787 23.6831 15.9494C21.6837 15.3706 19.6756 14.845 17.6725 14.2981C17.4744 14.2444 17.2781 14.1712 17.0812 14.1075L17.0375 13.9825Z" fill="#4FBA80"/>
<path fill-rule="evenodd" clip-rule="evenodd" d="M3.91812 29.0456C5.26937 29.1725 6.56624 29.7594 7.87062 30.2744C8.79437 30.6387 9.71999 31.0125 10.6444 31.3719C11.6494 31.765 12.5025 31.4819 13.1694 30.5656C14.0658 29.3319 14.9417 28.0833 15.7969 26.8206C16.4469 25.8581 17.0469 24.8469 17.6844 23.8769C18.1094 23.2294 18.6244 22.7556 19.3281 22.6531C19.5012 23.0687 19.3406 23.3444 19.1537 23.5962C18.5225 24.4319 17.8725 25.2375 17.26 26.0956C16.2594 27.4906 15.2994 28.9344 14.2956 30.3244C13.8287 30.9669 13.3125 31.5562 12.7856 32.12C12.3469 32.5919 11.7787 32.6162 11.2169 32.4744C10.6281 32.325 10.0494 32.0662 9.46312 31.9C8.46624 31.6144 7.46499 31.3625 6.46437 31.0937C5.87874 30.9312 5.28499 30.7994 4.70499 30.585C4.14312 30.3769 3.88874 29.8319 3.91562 29.0456" fill="#338455"/>
<path fill-rule="evenodd" clip-rule="evenodd" d="M5.59437 32.0625C7.31874 32.5 9.03999 32.8712 10.7437 33.3944C11.5475 33.6387 12.2094 33.5825 12.7444 32.8837C13.6019 31.7675 14.4219 30.605 15.2569 29.4612C16.5194 27.7362 17.7756 26.0112 19.0444 24.2943C19.2069 24.0693 19.3987 23.8812 19.5756 23.6762C19.9175 24.2868 19.92 24.5362 19.5962 25.0006C17.7631 27.6512 15.9294 30.3037 14.0837 32.9425C13.82 33.3237 13.5 33.6387 13.1994 33.9756C12.7644 34.4619 12.2319 34.6231 11.6619 34.345C10.3731 33.7137 9.03312 33.7487 7.72499 33.3531C7.26937 33.2156 6.79437 33.2694 6.32999 33.1744C5.83562 33.0737 5.60999 32.7219 5.59562 32.0625" fill="#338455"/>
<path fill-rule="evenodd" clip-rule="evenodd" d="M4.77812 30.6687C4.96374 30.6812 5.15187 30.6687 5.33749 30.71C6.94249 31.0712 8.55749 31.3131 10.1206 32.1194C10.8387 32.4912 11.635 32.7131 12.34 32.305C12.7812 32.0487 13.1837 31.6312 13.5256 31.1837C14.7756 29.535 15.9981 27.8494 17.2219 26.1712C17.7431 25.4581 18.2269 24.7006 18.7644 24.0094C19.0194 23.6794 19.3594 23.4625 19.6625 23.1931C19.7037 23.2444 19.7456 23.2956 19.7869 23.345C19.6894 23.5794 19.6219 23.8531 19.4875 24.0437C17.7678 26.5047 16.0355 28.9568 14.2906 31.4C13.7972 32.0833 13.2607 32.7344 12.6844 33.3494C12.4925 33.5569 12.1531 33.6937 11.9019 33.63C9.78249 33.0875 7.67062 32.4919 5.55749 31.9125C5.06874 31.7806 4.76937 31.4312 4.77812 30.6712" fill="#338455"/>
<path fill-rule="evenodd" clip-rule="evenodd" d="M6.80687 32.7125C8.46187 33.1425 10.09 33.5531 11.7125 34C12.2931 34.1612 12.8012 34.0856 13.1944 33.5606C14.3356 32.0406 15.4787 30.5194 16.595 28.9675C17.5037 27.7 18.3712 26.38 19.27 25.0956C19.4631 24.8175 19.7037 24.5875 19.9356 24.3212C20.3056 25.1762 20.3081 25.1787 19.86 25.6794C18.3587 27.3475 17.1825 29.3944 15.9181 31.3419C15.1262 32.5612 14.2669 33.6994 13.4412 34.8794C13.29 35.0994 13.12 35.1212 12.8831 35.0869C11.5481 34.8919 10.2119 34.7575 8.87937 34.55C8.27687 34.4575 7.67874 34.2469 7.07624 34.0931C6.74499 34.0075 6.61187 33.795 6.72562 33.3731C6.77062 33.2106 6.77062 33.0275 6.80687 32.7125Z" fill="#338455"/>
<path fill-rule="evenodd" clip-rule="evenodd" d="M8.00562 34.6875C8.26687 34.6581 8.52625 34.5925 8.78937 34.6069C9.44187 34.6456 10.1012 34.7581 10.7525 34.7706C11.3106 34.7806 11.8656 34.6731 12.4237 34.6556C12.8087 34.6431 13.2075 34.6262 13.5837 34.7462C14.5694 35.0587 15.2462 34.6606 15.68 33.5787C16.6731 31.0962 18.2906 29.2937 19.6937 27.2662C19.9244 26.9319 20.1712 26.6119 20.4081 26.2869C20.8456 26.7487 20.8919 27.3175 20.5975 27.76C19.6181 29.2231 18.6737 30.7281 17.6794 32.1725C16.929 33.2517 16.1457 34.3076 15.3306 35.3387C14.8944 35.8931 14.3206 36.1587 13.6669 36.0419C11.9069 35.715 10.1469 35.3631 8.38937 35.0131C8.26562 34.9912 8.14625 34.9081 8.025 34.8544C8.0175 34.8006 8.01 34.7469 8.00562 34.6906" fill="#338455"/>
<path fill-rule="evenodd" clip-rule="evenodd" d="M13.4406 34.6937C15.1469 32.1037 16.8144 29.5394 18.5169 27.0156C18.9275 26.4069 19.4412 25.9187 19.9237 25.4031C20.0337 25.2881 20.3256 25.21 20.3412 25.2419C20.4631 25.5281 20.6981 25.8137 20.4875 26.1631C20.13 26.7519 19.7962 27.37 19.42 27.9369C18.7456 28.9581 18.025 29.9256 17.3669 30.9612C16.8331 31.8044 16.32 32.6812 15.8731 33.6094C15.4237 34.5475 14.8556 35.0356 13.9356 34.7381C13.7912 34.6912 13.6387 34.7081 13.4406 34.6937Z" fill="#338455"/>
<path fill-rule="evenodd" clip-rule="evenodd" d="M19.3306 22.65C18.6269 22.7525 18.1112 23.2262 17.6869 23.8737C17.0487 24.8437 16.4456 25.855 15.7994 26.8175C14.9444 28.0803 14.0684 29.3288 13.1719 30.5625C12.8775 30.9675 12.5469 31.2512 12.1762 31.4056C12.2687 31.7281 12.3744 32.0475 12.4869 32.3631C12.5944 32.3012 12.6969 32.2206 12.7925 32.1156C13.3187 31.5519 13.8356 30.9625 14.3025 30.32C15.3062 28.93 16.2669 27.4869 17.2669 26.0912C17.8787 25.2337 18.5294 24.4275 19.1606 23.5919C19.3469 23.3412 19.5081 23.065 19.3344 22.65" fill="#276C43"/>
<path fill-rule="evenodd" clip-rule="evenodd" d="M19.575 23.6756C19.3981 23.8812 19.2062 24.0687 19.0437 24.2937C17.7787 26.0112 16.5187 27.7356 15.2562 29.4606C14.4194 30.6037 13.6 31.7662 12.7437 32.8831C12.7312 32.9 12.7169 32.915 12.705 32.9294C12.8569 33.2881 13.0225 33.6331 13.2056 33.965C13.5037 33.6331 13.8212 33.3175 14.0825 32.9412C15.9281 30.3025 17.7619 27.65 19.595 24.9994C19.9181 24.5356 19.9156 24.2862 19.5737 23.6756" fill="#276C43"/>
<path fill-rule="evenodd" clip-rule="evenodd" d="M19.6631 23.1937C19.36 23.4625 19.0206 23.68 18.765 24.01C18.2275 24.7012 17.7437 25.4587 17.2225 26.1719C15.9987 27.8525 14.7769 29.5387 13.5262 31.1844C13.2137 31.5975 12.8425 31.9831 12.4419 32.2394C12.5544 32.5669 12.6825 32.8844 12.8219 33.1969C13.3475 32.6271 13.8382 32.026 14.2912 31.3969C16.0356 28.9612 17.765 26.5012 19.4881 24.0406C19.6225 23.85 19.69 23.5762 19.7875 23.3419C19.7453 23.2923 19.7038 23.2421 19.6631 23.1912" fill="#276C43"/>
<path fill-rule="evenodd" clip-rule="evenodd" d="M19.935 24.3231C19.7031 24.5894 19.4625 24.8187 19.2694 25.0975C18.3706 26.3825 17.5031 27.7019 16.5944 28.9694C15.4781 30.5206 14.335 32.0425 13.1937 33.5625C13.1548 33.6133 13.1133 33.6621 13.0694 33.7087C13.2356 34.0312 13.4187 34.3419 13.6187 34.6325C14.3881 33.5406 15.1831 32.4781 15.9175 31.3437C17.1819 29.3969 18.3581 27.3494 19.8594 25.6812C20.3081 25.1806 20.3056 25.1781 19.935 24.3231Z" fill="#276C43"/>
<path fill-rule="evenodd" clip-rule="evenodd" d="M20.4081 26.2812C20.1712 26.6069 19.9244 26.9262 19.6937 27.2606C18.29 29.2906 16.6731 31.0937 15.68 33.5731C15.2687 34.6037 14.6369 35.0119 13.7244 34.78C14.01 35.1794 14.3403 35.5448 14.7087 35.8694C14.9362 35.745 15.1462 35.5619 15.3306 35.33C16.1458 34.2989 16.9291 33.243 17.6794 32.1637C18.6737 30.72 19.6181 29.215 20.5975 27.7512C20.8919 27.3087 20.8456 26.74 20.4081 26.2781" fill="#276C43"/>
<path fill-rule="evenodd" clip-rule="evenodd" d="M20.3419 25.2419C20.3262 25.21 20.0337 25.2887 19.9244 25.4031C19.4419 25.9187 18.9275 26.4069 18.5175 27.0156C16.8506 29.4856 15.2169 31.9969 13.5487 34.5281C13.5875 34.5869 13.6269 34.6456 13.6662 34.7012C13.7644 34.7037 13.8519 34.7087 13.9375 34.7356C14.8575 35.0337 15.425 34.545 15.875 33.6069C16.3219 32.6787 16.835 31.8012 17.3687 30.9587C18.0269 29.9231 18.7481 28.9556 19.4219 27.9344C19.7981 27.3675 20.1319 26.7494 20.4894 26.1606C20.6987 25.8119 20.4644 25.5256 20.3419 25.24" fill="#276C43"/>
<path fill-rule="evenodd" clip-rule="evenodd" d="M24.9325 16.7431C24.7737 16.5356 24.6369 16.3569 24.4712 16.1425C24.6275 15.9569 24.7681 15.7762 24.9181 15.605C26.1175 14.2512 27.3269 12.92 28.5031 11.54C28.8094 11.1787 29.1125 11.1619 29.4644 11.2956C29.6694 11.9919 29.5206 12.4781 29.1075 12.8637C27.7469 14.1294 26.4012 15.4144 25.05 16.6919C25.0225 16.7187 24.9812 16.7206 24.9325 16.7431Z" fill="#276C43"/>
<path fill-rule="evenodd" clip-rule="evenodd" d="M25.1937 17.2312C24.9412 16.3031 24.9387 16.3006 25.44 15.8387C26.6757 14.6976 27.9176 13.5632 29.1656 12.4356C29.2744 12.3381 29.4412 12.3112 29.5844 12.3181C30.0187 12.3325 30.2156 12.7237 29.9737 13.1706C29.7806 13.5394 29.5331 13.8962 29.2437 14.1231C28.1969 14.9437 27.1212 15.7037 26.0612 16.495C25.8869 16.6269 25.7294 16.8 25.5569 16.9469C25.4419 17.0481 25.32 17.1337 25.1937 17.2312Z" fill="#276C43"/>
<path fill-rule="evenodd" clip-rule="evenodd" d="M30.0312 14.6956C30.26 15.1356 30.1637 15.5212 29.9187 15.7775C29.4375 16.2831 28.9194 16.74 28.4106 17.2044C27.6337 17.9125 26.8494 18.6137 26.0687 19.3125C26.0125 19.3637 25.9444 19.3981 25.8512 19.4619C25.7706 19.0662 25.6719 18.7069 25.6312 18.345C25.6144 18.2106 25.7019 18.0131 25.795 17.9344C26.385 17.4212 26.9775 16.9106 27.5906 16.4469C28.3825 15.8512 29.1937 15.2944 30.0312 14.6956Z" fill="#276C43"/>
<path fill-rule="evenodd" clip-rule="evenodd" d="M24.9612 16.8087C24.7769 16.2837 24.8806 15.9294 25.1494 15.6631C25.99 14.83 26.8375 14.0094 27.6781 13.1762C28.0319 12.8269 28.3869 12.4775 28.7187 12.0962C29.0375 11.7319 29.2562 11.73 29.6694 12.2037C28.4844 14.3487 26.6962 15.5044 24.9612 16.8087Z" fill="#276C43"/>
<path fill-rule="evenodd" clip-rule="evenodd" d="M25.4087 17.6981C25.3137 17.4025 25.24 17.1756 25.1356 16.8431C26.6956 15.6269 28.2731 14.3931 29.8687 13.1519L30.2256 13.5844C28.9412 15.5337 27.1406 16.5012 25.4087 17.6981Z" fill="#276C43"/>
<path fill-rule="evenodd" clip-rule="evenodd" d="M25.7062 18.4581C25.6331 18.2012 25.5694 17.9694 25.4875 17.6787C26.295 17.0706 27.1106 16.4919 27.8962 15.8562C28.6219 15.2675 29.3156 14.6156 30.03 14.0044C30.1212 13.9287 30.3356 13.87 30.3556 13.9094C30.4581 14.11 30.6487 14.2806 30.4825 14.5887C30.0475 15.4144 29.4419 15.9712 28.775 16.4281C27.7656 17.1144 26.7444 17.7712 25.7062 18.4581Z" fill="#276C43"/>
<path fill-rule="evenodd" clip-rule="evenodd" d="M8.16875 34.8081C9.52 35.3044 10.8937 34.9156 12.2262 35.6219C11.7594 35.6075 11.2931 35.605 10.8281 35.5756C10.05 35.5294 9.27437 35.4606 8.49625 35.4194C8.18812 35.4025 8.07625 35.2381 8.16875 34.8081Z" fill="#338455"/>
<path fill-rule="evenodd" clip-rule="evenodd" d="M15.9325 16.5331C15.765 16.6062 15.6175 16.67 15.4706 16.7356C15.4606 16.7769 15.4537 16.8212 15.445 16.865C15.5744 16.9212 15.7075 16.96 15.835 17.0287C16.1156 17.1875 16.3381 17.2581 16.6069 16.9506C17.0781 16.4131 17.7012 16.2812 18.355 16.3912C19.0862 16.5187 19.5325 17.1 19.585 18.045C19.6019 18.365 19.7025 18.4606 19.91 18.5656C20.1031 18.6631 20.2762 18.8487 20.4581 18.9956C20.4425 19.0662 20.4275 19.1394 20.4131 19.2081C20.2412 19.2031 20.0469 19.2619 19.9 19.1712C19.5894 18.9831 19.4506 19.1544 19.2419 19.3862C18.9021 19.7703 18.5082 20.1027 18.0725 20.3731C17.905 20.4762 17.5912 20.3806 17.3981 20.2362C16.9312 19.8894 16.9069 19.4375 17.3006 19.0587C17.4937 18.8731 17.7062 18.7212 17.9781 18.4994C17.6137 18.3675 17.315 18.2381 17.0119 18.1619C16.93 18.1425 16.8225 18.2644 16.7481 18.35C16.3056 18.8506 15.7906 19.0806 15.17 18.9144C14.5656 18.7506 14.1681 18.2356 14.0975 17.4562C14.0644 17.07 13.9412 16.865 13.68 16.6962C13.5737 16.6281 13.5212 16.4056 13.4419 16.2537C13.57 16.2169 13.7212 16.1025 13.8219 16.1612C14.045 16.2956 14.1856 16.2419 14.3644 16.0831C14.5619 15.9119 14.7944 15.7725 15.0337 15.7187C15.52 15.6069 15.74 15.8194 15.9325 16.5331ZM17.54 17.7894L18.5781 18.0312C18.2731 17.3525 18.1569 17.3231 17.54 17.7894ZM15.1581 17.3644C15.2206 17.6062 15.2612 17.77 15.3 17.9337L15.7656 17.78C15.7544 17.7412 15.7425 17.7069 15.7337 17.67L15.1581 17.3644Z" fill="white"/>
<path fill-rule="evenodd" clip-rule="evenodd" d="M23.2312 19.2931C23.1362 19.5962 22.9381 19.5569 22.7444 19.435C22.5419 19.305 22.3206 19.1587 22.3987 18.7188C22.6819 18.9144 22.9519 19.1025 23.2312 19.2931Z" fill="#E6A42E"/>
<path fill-rule="evenodd" clip-rule="evenodd" d="M23.2625 18.7219C22.6887 18.6169 22.6487 18.5362 22.8281 17.7469C22.9962 18.1256 23.1206 18.3969 23.2625 18.7219Z" fill="#E6A42E"/>
<path fill-rule="evenodd" clip-rule="evenodd" d="M17.5375 17.7906C18.1544 17.3237 18.2706 17.3531 18.5756 18.0325L17.5375 17.7906Z" fill="#E6A42E"/>
<path fill-rule="evenodd" clip-rule="evenodd" d="M15.1562 17.3656L15.7319 17.6712C15.7406 17.7081 15.7525 17.7419 15.7637 17.7812L15.2981 17.935C15.2526 17.7448 15.2053 17.555 15.1562 17.3656Z" fill="#E6A42E"/>
<path d="M23.1244 25.3325C23.1244 25.3325 16.8244 14.2512 26.9856 11.8181C37.145 9.385 31.9019 11.3562 39.7731 8.15375C39.7731 8.15375 40.805 10.6456 36.8856 14.84L38.9113 14.85C38.9113 14.85 39.06 18.4019 33.7588 18.5975L35.8556 19.8475C35.8556 19.8475 33.8119 21.7456 30.7869 20.71L31.8413 22.3594C31.8413 22.3594 30.2806 23.5956 27.6688 21.6725L28.4875 22.9187C28.4875 22.9187 26.4181 24.46 24.5031 23.075C24.5031 23.075 22.8512 22.45 23.1244 25.3319" fill="#B3B3B3"/>
<path d="M23.2937 23.5613C23.2937 23.5613 18.2562 14.7031 26.3794 12.7562C34.5019 10.8094 30.3125 12.385 36.6037 9.82687C36.6037 9.82687 37.4281 11.8181 34.2956 15.1719L35.9137 15.1794C35.9137 15.1794 36.0337 18.0181 31.7962 18.1744L33.4737 19.1763C33.4737 19.1763 31.8394 20.6931 29.4187 19.8675L30.2644 21.1844C30.2644 21.1844 29.0156 22.1738 26.9269 20.6375L27.5806 21.6319C27.5806 21.6319 25.9269 22.8656 24.3962 21.7588C24.3962 21.7588 23.0737 21.255 23.2937 23.5613Z" fill="#E6E6E6"/>
</svg>
