<svg width="40" height="40" viewBox="0 0 40 40" fill="none" xmlns="http://www.w3.org/2000/svg">
<path d="M23.6781 25.8719V24C23.6781 23.1406 23.7656 22.3594 23.9437 21.6594C24.1219 20.9562 24.3906 20.2906 24.7531 19.6594C25.1156 19.0281 25.5844 18.4125 26.1562 17.8125C26.7312 17.2125 27.4219 16.5906 28.2312 15.9531C28.9406 15.3937 29.5406 14.8969 30.0312 14.4594C30.5187 14.0187 30.9156 13.5844 31.2187 13.1562C31.5219 12.7281 31.7437 12.275 31.8781 11.8031C32.0125 11.3312 32.0812 10.7812 32.0812 10.1594C32.0812 9.19687 31.7562 8.40312 31.1062 7.77812C30.4562 7.15312 29.4656 6.84374 28.1312 6.84374C26.9656 6.84374 25.7125 7.08749 24.3719 7.57499C23.0312 8.06562 21.6437 8.66249 20.2094 9.37187L17.6281 3.77812C18.3531 3.35937 19.1437 2.95624 19.9937 2.57812C20.8469 2.19999 21.7312 1.85937 22.65 1.56562C23.5687 1.26874 24.5031 1.03749 25.4469 0.871866C26.3906 0.703116 27.3219 0.615616 28.2312 0.615616C29.9531 0.615616 31.5031 0.824991 32.8875 1.23749C34.2719 1.64999 35.4437 2.25312 36.4062 3.04687C37.3687 3.84062 38.1062 4.79999 38.6219 5.93124C39.1375 7.05937 39.3937 8.34999 39.3937 9.80312C39.3937 10.8687 39.275 11.8156 39.0406 12.6531C38.8077 13.4768 38.4538 14.2614 37.9906 14.9812C37.525 15.6969 36.9437 16.3875 36.2437 17.0531C35.5437 17.7219 34.7281 18.425 33.8 19.1687C33.0906 19.725 32.5125 20.2094 32.0656 20.625C31.6187 21.0375 31.2687 21.4312 31.0156 21.8031C30.7625 22.1719 30.5906 22.5562 30.4969 22.9531C30.4031 23.35 30.3562 23.8156 30.3562 24.3594V25.8781H23.6781V25.8719ZM22.8406 34.5281C22.8406 33.7375 22.9562 33.0625 23.1844 32.5187C23.4125 31.9687 23.7281 31.5281 24.1344 31.1875C24.5375 30.85 25.0156 30.6062 25.5656 30.4562C26.1125 30.3031 26.7 30.2281 27.325 30.2281C27.9156 30.2281 28.475 30.3062 29.0094 30.4562C29.5406 30.6062 30.0094 30.8531 30.4125 31.1875C30.8156 31.5281 31.1375 31.9687 31.375 32.5187C31.6125 33.0656 31.7281 33.7375 31.7281 34.5281C31.7281 35.2875 31.6094 35.9406 31.375 36.4781C31.1375 37.0156 30.8187 37.4625 30.4125 37.8187C30.0062 38.1719 29.5375 38.4312 29.0094 38.5906C28.4781 38.75 27.9156 38.8312 27.325 38.8312C26.7 38.8312 26.1125 38.75 25.5656 38.5906C25.0156 38.4312 24.5375 38.1719 24.1344 37.8187C23.7312 37.4625 23.4125 37.0156 23.1844 36.4781C22.9562 35.9375 22.8406 35.2844 22.8406 34.5281Z" fill="#40C0E7"/>
<path d="M6.85625 23.775H12.3437C12.5437 23.775 12.7094 23.6437 12.7219 23.4781L14.2187 1.94999C14.225 1.86249 14.1875 1.78124 14.1156 1.71562C14.0437 1.65312 13.9469 1.61562 13.8406 1.61562H5.35625C5.25312 1.61562 5.15312 1.65312 5.08125 1.71562C5.0125 1.77812 4.97187 1.86249 4.98125 1.94999L6.47812 23.4781C6.49062 23.6437 6.65312 23.775 6.85625 23.775Z" fill="#40C0E7"/>
<path d="M5.15625 35.0906C5.15625 34.3 5.27188 33.6313 5.5 33.0813C5.72813 32.5313 6.04375 32.0906 6.45 31.75C6.85312 31.4125 7.33125 31.1688 7.88125 31.0188C8.42812 30.8656 9.01562 30.7875 9.64062 30.7875C10.2313 30.7875 10.7938 30.8625 11.325 31.0188C11.8563 31.1688 12.325 31.4156 12.7281 31.75C13.1312 32.0906 13.4531 32.5313 13.6906 33.0813C13.9281 33.6313 14.0437 34.3 14.0437 35.0906C14.0437 35.8531 13.925 36.5 13.6906 37.0406C13.4531 37.5781 13.1344 38.0281 12.7281 38.3813C12.3219 38.7344 11.8531 38.9938 11.325 39.1531C10.7938 39.3125 10.2313 39.3938 9.64062 39.3938C9.01562 39.3938 8.42812 39.3156 7.88125 39.1531C7.33125 38.9938 6.85312 38.7344 6.45 38.3813C6.04687 38.0281 5.72813 37.5781 5.5 37.0406C5.27188 36.5 5.15625 35.85 5.15625 35.0906Z" fill="#40C0E7"/>
</svg>
