<svg width="40" height="28" viewBox="0 0 40 28" fill="none" xmlns="http://www.w3.org/2000/svg">
<g clip-path="url(#clip0_13_54)">
<path d="M21.3718 26.4637L39.4309 8.40203C39.6112 8.2223 39.7543 8.00874 39.8519 7.77361C39.9495 7.53848 39.9998 7.28639 39.9998 7.0318C39.9998 6.77721 39.9495 6.52512 39.8519 6.28998C39.7543 6.05485 39.6112 5.8413 39.4309 5.66156L34.6873 0.915313C34.398 0.625049 34.0542 0.394775 33.6756 0.237703C33.2971 0.0806303 32.8912 -0.00014879 32.4814 2.05739e-07H7.54387C7.13369 8.49274e-05 6.72754 0.080961 6.34861 0.238011C5.96969 0.39506 5.62541 0.625208 5.33543 0.915313L0.575273 5.66984C0.211835 6.02595 0.0047245 6.51183 -0.00050834 7.02063C-0.00555193 7.52945 0.191725 8.01943 0.547929 8.38281L0.575273 8.41016L18.6343 26.472C18.8141 26.6523 19.0276 26.7954 19.2627 26.893C19.4978 26.9906 19.7499 27.0408 20.0045 27.0408C20.2591 27.0408 20.5111 26.9906 20.7463 26.893C20.9814 26.7954 21.1949 26.6523 21.3746 26.472L21.3718 26.4637Z" fill="url(#paint0_linear_13_54)"/>
<path opacity="0.4" d="M5.19063 1.06047C5.51166 0.737861 5.90799 0.500292 6.34384 0.369215C6.77968 0.238138 7.24131 0.217679 7.68703 0.309688L39.0478 6.67C39.2968 6.72149 39.5153 6.86946 39.6554 7.08156C39.7956 7.29366 39.8461 7.55264 39.7959 7.80188C39.7829 7.86694 39.7627 7.93035 39.7356 7.99094C39.9503 7.62386 40.0369 7.19588 39.9818 6.77424C39.9267 6.3526 39.7331 5.9612 39.4314 5.66156L34.6878 0.915313C34.3985 0.625049 34.0547 0.394775 33.6761 0.237703C33.2976 0.0806303 32.8917 -0.00014879 32.4819 2.05739e-07H7.54438C6.71599 0.000239952 5.92162 0.329478 5.33594 0.915313L5.19063 1.06063V1.06047Z" fill="url(#paint1_linear_13_54)"/>
<path opacity="0.4" d="M33.093 1.38937L31.268 5.09718L39.0477 6.67C39.2967 6.72145 39.5152 6.86941 39.6554 7.08151C39.7956 7.29362 39.8462 7.55261 39.796 7.80187C39.7829 7.86694 39.7627 7.93035 39.7356 7.99093C39.9503 7.62386 40.0369 7.19587 39.9818 6.77423C39.9267 6.35259 39.7331 5.9612 39.4314 5.66156L34.6878 0.915308C34.3985 0.625045 34.0547 0.394771 33.6761 0.237698C33.2976 0.0806259 32.8917 -0.000153202 32.4819 -4.20685e-06H32.2408C32.4042 -0.000441883 32.5649 0.0411049 32.7076 0.120652C32.8503 0.200198 32.9702 0.315077 33.0558 0.45427C33.1413 0.593463 33.1897 0.752301 33.1962 0.915552C33.2027 1.0788 33.1672 1.24099 33.093 1.38656V1.38937Z" fill="url(#paint2_linear_13_54)"/>
<path d="M39.7356 8.00188C39.8365 7.76856 39.8407 7.50472 39.7472 7.26834C39.6537 7.03196 39.4701 6.84238 39.2369 6.74125C39.1763 6.71424 39.1129 6.69407 39.0478 6.6811L31.2678 5.09688L20.7997 26.2225C20.6642 26.4963 20.4356 26.7129 20.1549 26.8334C19.8741 26.9539 19.5597 26.9705 19.2678 26.8802C19.6206 27.0261 20.0087 27.0645 20.3832 26.9904C20.7577 26.9162 21.1019 26.733 21.3725 26.4636L39.4313 8.40203C39.5516 8.28413 39.654 8.14933 39.7355 8.00188H39.7356Z" fill="url(#paint3_linear_13_54)"/>
</g>
<defs>
<linearGradient id="paint0_linear_13_54" x1="11.2107" y1="17.5157" x2="20.1977" y2="1.94715" gradientUnits="userSpaceOnUse">
<stop stop-color="#8855FF"/>
<stop offset="1" stop-color="#00B6FF"/>
</linearGradient>
<linearGradient id="paint1_linear_13_54" x1="22.3151" y1="4.06451" x2="22.6053" y2="2.86594" gradientUnits="userSpaceOnUse">
<stop offset="0.07" stop-color="white"/>
<stop offset="0.89" stop-color="#009FFF"/>
</linearGradient>
<linearGradient id="paint2_linear_13_54" x1="32.9588" y1="17.785" x2="41.9238" y2="25.4506" gradientUnits="userSpaceOnUse">
<stop offset="0.07" stop-color="white"/>
<stop offset="0.89" stop-color="#009FFF"/>
</linearGradient>
<linearGradient id="paint3_linear_13_54" x1="21.531" y1="13.751" x2="34.9634" y2="18.4016" gradientUnits="userSpaceOnUse">
<stop stop-color="#4036C1"/>
<stop offset="0.98" stop-color="#539EFF"/>
</linearGradient>
<clipPath id="clip0_13_54">
<rect width="40" height="27.1875" fill="white"/>
</clipPath>
</defs>
</svg>
